<?xml version="1.0" standalone="no"?><!DOCTYPE svg PUBLIC "-//W3C//DTD SVG 1.1//EN" "http://www.w3.org/Graphics/SVG/1.1/DTD/svg11.dtd"><svg t="1617798471147" class="icon" viewBox="0 0 1024 1024" version="1.1" xmlns="http://www.w3.org/2000/svg" p-id="2030" xmlns:xlink="http://www.w3.org/1999/xlink" width="200" height="200"><defs><style type="text/css"></style></defs><path d="M935.424 539.136l-396.288 396.288c-14.848 14.848-39.424 14.848-54.784 0l-396.288-396.288c-14.848-14.848-14.848-39.424 0-54.784l396.288-396.288c14.848-14.848 39.424-14.848 54.784 0l396.288 396.288c15.36 15.36 15.36 39.936 0 54.784z" fill="#FFFFFF" p-id="2031"></path><path d="M512 954.368c-11.776 0-23.552-4.608-32.768-13.312l-396.288-396.288c-17.92-17.92-17.92-47.616 0-65.536l396.288-396.288c17.92-17.92 47.616-17.92 65.536 0l396.288 396.288c17.92 17.92 17.92 47.616 0 65.536l-396.288 396.288c-9.216 9.216-20.992 13.312-32.768 13.312z m0-869.376c-7.68 0-15.872 3.072-22.016 9.216L93.696 489.984c-12.288 12.288-12.288 31.744 0 43.52l396.288 396.288c12.288 12.288 31.744 12.288 43.52 0l396.288-396.288c12.288-12.288 12.288-31.744 0-43.52l-396.288-396.288c-5.632-5.632-13.824-8.704-21.504-8.704z" fill="#2E66FF" p-id="2032"></path><path d="M900.608 473.088l-358.4 358.4c-23.04 23.04-60.416 23.04-82.944 0l-353.28-353.28c-38.912 30.72-14.336 55.296 6.144 75.776L484.352 926.72c14.848 14.848 39.424 14.848 54.784 0l372.736-372.736c23.04-23.04 49.152-41.984 0-82.944l-5.12-5.12c-2.048 2.56-4.096 5.12-6.144 7.168z" fill="#FFB5EC" p-id="2033"></path><path d="M935.936 481.792c-3.072-8.192-7.68-15.872-14.336-22.528l-35.84-35.84H466.944V120.32h-6.656L381.44 199.68v223.744H141.312l-35.84 35.84c-13.312 13.312-18.944 31.744-16.896 49.664h293.376v323.584l85.504 85.504v-409.6h468.992v-26.624z" fill="#C9E6FF" p-id="2034"></path><path d="M472.064 929.792l-95.744-95.744v-320.512H83.456l-0.512-4.608c-2.56-19.968 4.608-39.424 18.432-53.76l37.376-37.376h237.056v-220.16l81.92-81.92 13.824-9.728v312.32h416.256l37.376 37.376c6.656 7.168 12.288 15.36 15.36 24.576l0.512 1.024v32.768H472.064v415.744z m-85.504-99.84l75.264 75.264V503.296h468.992v-20.992c-2.56-7.68-7.168-14.336-12.8-19.968l-34.304-34.304H461.824v-302.08L386.56 201.728v226.816H143.36l-34.304 34.304c-10.752 10.752-16.384 25.6-15.872 40.96h293.888v326.144z" fill="#2E66FF" p-id="2035"></path><path d="M463.36 908.8v-64.512l-7.68-6.144L385.536 768v63.488l77.824 77.312zM91.136 503.808h40.96L102.4 474.112c-6.656 8.704-10.24 19.456-11.264 29.696zM935.936 504.32c-1.536-13.824-7.68-27.648-20.48-40.448l-5.632-5.632c-2.048 3.072-4.096 5.632-6.656 8.192l-37.888 37.888h70.656z" fill="#FFB5EC" p-id="2036"></path><path d="M430.592 454.144L295.936 376.32c-9.216-5.12-20.48 1.536-20.48 11.776v155.136c0 10.24 11.264 16.896 20.48 11.776L430.08 477.696c9.216-5.12 9.216-18.432 0.512-23.552z" fill="#FFF152" p-id="2037"></path><path d="M289.28 562.176c-3.072 0-6.656-1.024-9.216-2.56-5.632-3.584-9.216-9.216-9.216-16.384V388.608c0-6.656 3.584-12.8 9.216-16.384 5.632-3.584 12.8-3.584 18.944 0l134.144 77.312c5.632 3.584 9.216 9.216 9.216 16.384 0 6.656-3.584 12.8-9.216 16.384l-134.144 77.312c-3.072 1.536-6.656 2.56-9.728 2.56z m0-182.272c-1.536 0-3.072 0.512-4.096 1.024-2.56 1.536-4.096 4.096-4.096 7.168v155.136c0 3.072 1.536 5.632 4.096 7.168 2.56 1.536 5.632 1.536 8.704 0l134.144-77.312c2.56-1.536 4.096-4.096 4.096-7.168 0-3.072-1.536-5.632-4.096-7.168L293.376 380.928c-1.024-0.512-2.56-1.024-4.096-1.024z" fill="#2E66FF" p-id="2038"></path><path d="M421.376 454.144l134.144-77.312c9.216-5.12 20.48 1.536 20.48 11.776v155.136c0 10.24-11.264 16.896-20.48 11.776L421.376 477.696c-9.216-5.12-9.216-18.432 0-23.552z" fill="#FFF152" p-id="2039"></path><path d="M562.176 562.176c-3.072 0-6.656-1.024-9.216-2.56L418.816 482.304c-5.632-3.584-9.216-9.216-9.216-16.384 0-6.656 3.584-12.8 9.216-16.384L552.96 372.224c5.632-3.584 12.8-3.584 18.944 0 5.632 3.584 9.216 9.216 9.216 16.384v155.136c0 6.656-3.584 12.8-9.216 16.384-3.072 1.024-6.656 2.048-9.728 2.048z m-138.24-103.424c-2.56 1.536-4.096 4.096-4.096 7.168 0 3.072 1.536 5.632 4.096 7.168l134.144 77.312c2.56 1.536 5.632 1.536 8.704 0 2.56-1.536 4.096-4.096 4.096-7.168V388.608c0-3.072-1.536-5.632-4.096-7.168s-5.632-1.536-8.704 0L423.936 458.752z" fill="#2E66FF" p-id="2040"></path><path d="M361.984 465.92a24.064 15.872 0 1 0 48.128 0 24.064 15.872 0 1 0-48.128 0Z" fill="#FFF152" p-id="2041"></path><path d="M386.048 486.912c-16.384 0-29.184-9.216-29.184-20.992s12.8-20.992 29.184-20.992 29.184 9.216 29.184 20.992-12.8 20.992-29.184 20.992z m0-31.744c-11.264 0-18.944 5.632-18.944 10.752s7.68 10.752 18.944 10.752 18.944-5.632 18.944-10.752-7.68-10.752-18.944-10.752z" fill="#2E66FF" p-id="2042"></path><path d="M444.416 465.92a24.064 15.872 0 1 0 48.128 0 24.064 15.872 0 1 0-48.128 0Z" fill="#FFF152" p-id="2043"></path><path d="M468.48 486.912c-16.384 0-29.184-9.216-29.184-20.992s12.8-20.992 29.184-20.992 29.184 9.216 29.184 20.992-12.8 20.992-29.184 20.992z m0-31.744c-11.264 0-18.944 5.632-18.944 10.752s7.68 10.752 18.944 10.752 18.944-5.632 18.944-10.752-7.68-10.752-18.944-10.752z" fill="#2E66FF" p-id="2044"></path><path d="M455.68 502.784H398.336c-4.608 0-8.192-3.584-8.192-8.192V437.248c0-4.608 3.584-8.192 8.192-8.192H455.68c4.608 0 8.192 3.584 8.192 8.192v57.344c0 4.608-3.584 8.192-8.192 8.192z" fill="#FFF152" p-id="2045"></path><path d="M455.68 507.904H398.336c-7.168 0-13.312-6.144-13.312-13.312V437.248c0-7.168 6.144-13.312 13.312-13.312H455.68c7.168 0 13.312 6.144 13.312 13.312v57.344c0 7.168-5.632 13.312-13.312 13.312zM398.336 434.176c-1.536 0-3.072 1.536-3.072 3.072v57.344c0 1.536 1.536 3.072 3.072 3.072H455.68c1.536 0 3.072-1.536 3.072-3.072V437.248c0-1.536-1.536-3.072-3.072-3.072H398.336z" fill="#2E66FF" p-id="2046"></path></svg>