<?xml version="1.0" standalone="no"?><!DOCTYPE svg PUBLIC "-//W3C//DTD SVG 1.1//EN" "http://www.w3.org/Graphics/SVG/1.1/DTD/svg11.dtd"><svg t="1617798520941" class="icon" viewBox="0 0 1024 1024" version="1.1" xmlns="http://www.w3.org/2000/svg" p-id="3491" xmlns:xlink="http://www.w3.org/1999/xlink" width="200" height="200"><defs><style type="text/css"></style></defs><path d="M673.28 613.888c-96.256 29.184-114.176 114.688-114.176 114.688s61.952 61.44 158.208 32.256c87.552-26.624 105.472-112.128 105.472-112.128s-61.44-61.44-149.504-34.816z" fill="#FFB5EC" p-id="3492"></path><path d="M667.136 773.632c-68.096 0-110.592-40.96-111.104-41.472l-2.048-2.048 0.512-2.56c0-1.024 19.456-89.088 117.76-118.272 89.6-27.136 154.112 35.84 155.136 36.352l2.048 2.048-0.512 2.56c0 1.024-19.456 89.088-109.056 115.712-19.456 5.632-36.864 7.68-52.736 7.68z m-101.888-47.104c11.264 9.728 68.608 54.272 151.04 29.184 74.752-22.528 97.28-90.624 101.376-105.472-11.264-9.728-67.584-54.272-142.848-31.744-82.432 25.088-105.472 93.696-109.568 108.032z" fill="#2E66FF" p-id="3493"></path><path d="M312.832 150.528c11.264-3.072 23.552-1.536 35.328 1.536 11.776 3.072 23.552-2.048 29.696-12.288 20.992-33.792 57.856-56.32 101.888-43.008 40.448 12.288 67.584 50.688 69.12 92.672 2.56 61.952-19.456 94.208-37.888 119.808-25.088 34.816-47.616 45.056-85.504 45.568-76.288 1.024-187.392-10.752-180.224-123.904 2.56-38.4 30.208-70.144 67.584-80.384z" fill="#C9E6FF" p-id="3494"></path><path d="M417.792 360.448c-49.152 0-114.176-5.632-151.04-44.032-19.968-20.992-28.672-49.664-26.624-84.992 2.56-40.448 31.232-74.752 71.168-85.504 10.24-2.56 22.528-2.048 37.888 1.536 9.216 2.56 18.944-1.536 24.064-9.728 25.6-40.96 66.048-57.856 108.032-45.056 41.472 12.8 70.656 52.224 72.704 97.792 2.56 60.928-16.896 93.184-38.912 123.392-25.088 34.816-48.64 47.104-89.6 47.616-2.56-1.024-5.12-1.024-7.68-1.024zM326.144 154.112c-4.096 0-8.192 0.512-11.776 1.536-35.84 9.728-61.44 40.448-64 76.288-2.048 32.256 5.632 58.368 23.552 77.312 26.624 28.16 76.288 41.984 151.04 40.96 37.888-0.512 58.368-11.264 81.408-43.008 16.896-23.04 39.424-54.272 36.864-116.736-1.536-40.96-27.648-76.8-65.536-88.064-36.864-11.264-73.216 3.584-96.256 40.448-7.68 12.288-21.504 17.92-35.328 14.336-7.168-2.048-13.824-3.072-19.968-3.072z" fill="#2E66FF" p-id="3495"></path><path d="M448 201.728c10.24-5.632 22.528-7.168 34.304-6.656 11.776 0 18.944-20.48 22.528-31.744 12.288-37.888 42.496-68.608 89.088-66.048 42.496 2.56 77.312 33.28 89.088 73.728 17.408 59.904 3.584 96.256-8.192 125.44-16.384 39.936-35.84 54.784-72.192 64.512-74.24 18.944-184.832 34.304-204.288-77.312-6.656-38.4 15.36-62.976 49.664-81.92z" fill="#C9E6FF" p-id="3496"></path><path d="M513.536 379.392c-26.624 0-52.736-4.608-74.24-18.944-24.064-15.872-39.936-41.472-46.08-76.288-8.192-47.616 25.6-72.704 52.224-87.04 9.216-5.12 21.504-7.68 36.864-7.68 8.192 0 15.36-20.48 17.92-28.16 15.36-46.08 50.176-72.192 94.208-69.632 43.52 2.56 81.408 33.792 93.696 77.312 16.896 58.88 5.632 94.72-8.704 129.024-16.384 39.424-35.84 57.344-75.776 67.584-26.112 7.168-58.368 13.824-90.112 13.824z m-32.256-179.2c-13.312 0-23.552 2.048-30.72 6.144-38.4 20.992-52.736 44.544-47.104 76.288 5.632 32.256 19.456 55.296 41.472 69.632 32.768 20.992 83.968 22.528 156.672 3.584 36.352-9.216 53.76-25.088 68.608-61.44 10.752-26.112 25.6-61.952 8.192-122.368-11.264-39.424-45.568-67.584-84.48-70.144-38.912-2.048-70.144 20.992-83.968 62.464-4.096 12.288-11.776 35.328-27.648 35.328 0 0.512-0.512 0.512-1.024 0.512z" fill="#2E66FF" p-id="3497"></path><path d="M264.704 274.944c11.264-0.512 23.552 4.096 33.792 9.216 10.752 5.632 23.04 3.072 31.744-5.12C358.4 250.88 399.36 237.056 439.296 260.608c36.864 21.504 54.272 64.512 46.08 105.984-11.776 60.928-39.936 87.04-64 108.032-32.768 28.16-56.832 32.768-93.696 25.088-74.752-16.384-180.224-52.736-147.456-161.28 11.264-37.376 45.568-62.464 84.48-63.488z" fill="#C9E6FF" p-id="3498"></path><path d="M356.352 508.416c-9.216 0-18.944-1.024-29.696-3.584-48.64-10.752-116.224-30.72-144.896-78.848-14.848-25.088-16.896-54.784-6.656-88.576 11.776-38.912 47.616-65.536 89.088-67.072 10.752-0.512 22.528 3.072 36.352 10.24 8.704 4.608 18.944 2.56 25.6-4.096 34.304-34.304 77.312-41.472 115.2-19.456s57.344 66.56 48.64 111.616c-11.264 59.904-37.888 87.04-66.048 111.104-23.04 19.456-43.008 28.672-67.584 28.672zM264.704 280.064c-36.864 1.536-69.12 25.6-79.36 59.904-9.216 31.232-7.68 58.368 5.632 80.384 19.968 33.792 65.024 57.856 138.24 74.24 36.864 8.192 59.392 2.048 89.088-23.552 21.504-18.432 50.688-44.032 62.464-105.472 7.68-40.448-9.728-80.896-44.032-100.864-33.792-19.456-72.192-12.8-102.912 17.92-10.24 10.24-25.088 12.288-37.888 6.144-12.288-6.144-22.528-9.216-31.232-8.704z" fill="#2E66FF" p-id="3499"></path><path d="M463.872 393.216c-32.256 27.648-56.32 32.768-92.672 24.576-64.512-14.336-152.064-43.52-152.064-121.344-14.848 10.752-26.624 26.624-32.256 45.568-32.256 107.008 71.68 143.36 145.92 159.232 36.352 8.192 60.416 3.072 92.672-24.576 24.064-20.48 51.712-46.592 63.488-107.008v-0.512c-8.704 9.216-17.408 16.896-25.088 24.064z" fill="#FFFFFF" p-id="3500"></path><path d="M448 301.568m-111.104 0a111.104 111.104 0 1 0 222.208 0 111.104 111.104 0 1 0-222.208 0Z" fill="#FFB5EC" p-id="3501"></path><path d="M448 417.792c-64 0-116.224-52.224-116.224-116.224S384 185.344 448 185.344s116.224 52.224 116.224 116.224S512 417.792 448 417.792z m0-222.208c-58.368 0-105.984 47.616-105.984 105.984 0 58.368 47.616 105.984 105.984 105.984s105.984-47.616 105.984-105.984c0-58.88-47.616-105.984-105.984-105.984z" fill="#2E66FF" p-id="3502"></path><path d="M451.072 312.32m-82.944 0a82.944 82.944 0 1 0 165.888 0 82.944 82.944 0 1 0-165.888 0Z" fill="#FFF152" p-id="3503"></path><path d="M270.848 352.256c11.264-0.512 23.552 4.096 33.792 9.216 10.752 5.632 23.04 3.072 31.744-5.12 28.16-28.16 69.12-41.984 109.056-18.432 36.864 21.504 54.272 64.512 46.08 105.984-11.776 60.928 12.288 63.488-11.776 84.48-32.768 28.16-45.568 28.672-82.432 20.48C322.56 532.48 153.6 524.288 186.368 416.256c11.264-37.376 45.568-62.464 84.48-64z" fill="#FFFFFF" p-id="3504"></path><path d="M428.544 558.592c-9.216 0-19.456-2.048-32.256-4.608-11.264-2.56-25.088-4.608-39.936-7.168-62.976-10.752-141.312-24.064-168.96-69.12-10.752-17.92-12.8-38.912-5.632-62.976 11.776-38.912 47.616-65.536 89.088-67.072 10.752-0.512 22.528 3.072 36.352 10.24 8.704 4.608 18.944 2.56 25.6-4.096 34.304-34.304 77.312-41.472 115.2-19.456s57.344 66.56 48.64 111.616c-5.12 27.648-3.072 42.496-1.536 53.248 2.048 13.824 2.56 21.504-12.288 34.304-22.528 18.432-36.864 25.088-54.272 25.088zM270.848 357.376c-36.864 1.536-69.12 25.6-79.36 59.904-6.656 21.504-5.12 39.424 4.608 54.784 25.088 40.96 104.448 54.272 162.304 64 14.848 2.56 28.672 5.12 40.448 7.68 35.84 7.68 47.616 7.168 77.824-19.456 10.752-9.216 10.24-12.8 8.704-25.088-1.536-10.752-4.096-27.136 1.536-56.32 7.68-40.448-9.728-80.896-44.032-100.864-33.792-19.456-72.192-12.8-102.912 17.92-10.24 10.24-25.088 12.288-37.888 6.144-12.288-6.144-22.528-9.216-31.232-8.704z" fill="#2E66FF" p-id="3505"></path><path d="M536.064 295.424c8.704-6.144 19.968-8.192 30.72-9.216 10.752-1.024 19.456-8.704 22.016-19.456 8.192-35.328 19.456-86.528 61.952-88.064 38.4-1.536 66.048 42.496 79.872 78.336 20.992 52.736-1.536 107.008-26.112 138.24-23.552 31.232-37.376 56.32-69.632 68.096-65.536 23.552-104.96 20.992-132.608-78.336-9.216-33.792 4.608-69.12 33.792-89.6z" fill="#FFFFFF" p-id="3506"></path><path d="M580.608 481.28c-10.24 0-20.48-2.048-29.696-6.656-22.528-11.776-39.424-39.424-52.736-87.552-9.728-35.84 4.608-74.24 35.84-95.744 8.192-5.632 18.944-8.704 32.768-10.24 8.704-0.512 15.36-7.168 17.408-15.36 8.192-35.84 20.48-90.112 66.56-92.16 47.104-2.048 75.264 56.32 84.992 81.92 20.992 52.736 0 108.544-26.624 143.36-4.096 5.632-8.192 10.752-11.776 15.872-17.408 23.552-32.256 44.032-60.416 54.272-18.944 6.656-38.4 12.288-56.32 12.288z m71.68-297.472h-1.536c-38.4 1.536-49.664 51.2-56.832 83.968-3.072 12.8-13.312 22.016-26.624 23.552-12.288 1.024-21.504 4.096-28.16 8.192-27.648 18.944-40.448 52.736-31.744 84.48 12.8 45.056 27.648 71.168 47.616 81.408 17.92 9.216 40.448 7.168 77.824-6.656 25.088-9.216 38.4-27.648 55.296-50.688 3.584-5.12 7.68-10.24 11.776-15.872 25.088-32.256 44.544-84.48 25.088-133.12-8.192-22.528-33.28-75.264-72.704-75.264z" fill="#2E66FF" p-id="3507"></path><path d="M528.896 338.432c-10.24 6.144-17.92 16.384-23.552 26.624-6.144 10.24-17.92 15.36-29.696 12.8-39.424-8.704-81.92 2.048-103.424 44.032-19.456 38.4-16.384 91.136 18.432 115.712 44.032 31.232 118.272 30.208 163.84 20.992 47.616-9.728 173.568-109.568 81.408-211.968-27.136-29.184-73.216-28.16-107.008-8.192z" fill="#FFFFFF" p-id="3508"></path><path d="M495.616 569.856c-36.864 0-78.336-6.656-108.032-27.648-37.888-27.136-40.448-83.456-19.968-122.368 20.48-39.424 60.928-56.832 109.056-46.592 9.728 2.048 19.456-2.048 24.576-10.752 7.68-13.824 16.384-23.04 25.6-28.672 33.792-19.968 83.968-23.04 113.152 9.216 31.744 35.328 41.472 74.752 28.672 113.664-17.92 54.784-78.848 99.84-112.64 107.008-16.384 3.072-37.376 6.144-60.416 6.144z m-46.08-189.44c-32.256 0-58.88 15.36-73.728 44.032-17.92 35.328-16.384 85.504 16.896 109.568 46.08 32.256 121.856 28.16 159.744 19.968 27.136-5.632 87.04-44.544 104.96-99.84 11.776-35.84 3.072-71.168-26.624-103.936-25.6-28.672-70.144-25.088-100.352-7.168-7.68 4.608-14.848 12.8-22.016 24.576-7.168 12.288-21.504 18.432-35.328 15.36-7.68-1.536-15.36-2.56-23.552-2.56z" fill="#2E66FF" p-id="3509"></path><path d="M521.728 568.32s67.072 166.912 22.016 392.704" fill="#FFFFFF" p-id="3510"></path><path d="M544.256 966.144h-1.024c-2.56-0.512-4.608-3.072-4.096-6.144 44.032-221.696-21.504-388.096-22.016-389.632-1.024-2.56 0-5.632 3.072-6.656 2.56-1.024 5.632 0 6.656 3.072 0.512 1.536 67.072 171.008 22.528 395.776-0.512 1.536-2.56 3.584-5.12 3.584z" fill="#2E66FF" p-id="3511"></path></svg>