<?xml version="1.0" standalone="no"?><!DOCTYPE svg PUBLIC "-//W3C//DTD SVG 1.1//EN" "http://www.w3.org/Graphics/SVG/1.1/DTD/svg11.dtd"><svg t="1617798283472" class="icon" viewBox="0 0 1024 1024" version="1.1" xmlns="http://www.w3.org/2000/svg" p-id="2465" xmlns:xlink="http://www.w3.org/1999/xlink" width="200" height="200"><defs><style type="text/css"></style></defs><path d="M912.13 179H111.87A16.89 16.89 0 0 0 95 195.87v520.26A16.89 16.89 0 0 0 111.87 733h800.26A16.89 16.89 0 0 0 929 716.13V195.87A16.89 16.89 0 0 0 912.13 179zM611.81 612.14l-69.62-69.62 69.62-69.63 69.62 69.63z m140.32-186a57 57 0 1 1 57-57 57.11 57.11 0 0 1-57 56.99z" fill="#AEF0FF" p-id="2466"></path><path d="M542.193 542.525l69.622-69.622 69.621 69.622-69.621 69.621z" fill="#F9DB91" p-id="2467"></path><path d="M752.13 312.05a57 57 0 1 0 57 57 57.11 57.11 0 0 0-57-57z" fill="#EF6A6A" p-id="2468"></path><path d="M912.13 166H525V76.77A12.81 12.81 0 0 0 512.23 64h-0.46A12.81 12.81 0 0 0 499 76.77V166H111.87A29.87 29.87 0 0 0 82 195.87v520.26A29.87 29.87 0 0 0 111.87 746h269.92l-63.14 173.48a12.79 12.79 0 0 0 7.63 16.36l0.43 0.16a12.81 12.81 0 0 0 16.37-7.63L409.46 746H499v201.23A12.81 12.81 0 0 0 511.77 960h0.46A12.81 12.81 0 0 0 525 947.23V746h89.54l66.38 182.37a12.81 12.81 0 0 0 16.37 7.63l0.43-0.16a12.79 12.79 0 0 0 7.63-16.36L642.21 746h269.92A29.87 29.87 0 0 0 942 716.13V195.87A29.87 29.87 0 0 0 912.13 166zM916 716.13a3.88 3.88 0 0 1-3.87 3.87H111.87a3.88 3.88 0 0 1-3.87-3.87V195.87a3.88 3.88 0 0 1 3.87-3.87h800.26a3.88 3.88 0 0 1 3.87 3.87z" fill="#512C56" p-id="2469"></path><path d="M617.9 460.6a8.63 8.63 0 0 0-12.19 0l-75.81 75.82a8.61 8.61 0 0 0 0 12.19l75.81 75.82a8.63 8.63 0 0 0 12.19 0l75.82-75.82a8.61 8.61 0 0 0 0-12.19z m-6.09 133.15l-51.24-51.24 51.24-51.23L663 542.51zM752.13 299.05a70 70 0 1 0 70 70 70 70 0 0 0-70-70z m0 114.08a44 44 0 1 1 44-44 44.09 44.09 0 0 1-44 44z" fill="#512C56" p-id="2470"></path><path d="M221.82 351.43m12.77 0l294.46 0q12.77 0 12.77 12.77l0 0.46q0 12.77-12.77 12.77l-294.46 0q-12.77 0-12.77-12.77l0-0.46q0-12.77 12.77-12.77Z" fill="#512C56" p-id="2471"></path><path d="M221.82 518.43m12.77 0l204.46 0q12.77 0 12.77 12.77l0 0.46q0 12.77-12.77 12.77l-204.46 0q-12.77 0-12.77-12.77l0-0.46q0-12.77 12.77-12.77Z" fill="#512C56" p-id="2472"></path></svg>