<?xml version="1.0" standalone="no"?><!DOCTYPE svg PUBLIC "-//W3C//DTD SVG 1.1//EN" "http://www.w3.org/Graphics/SVG/1.1/DTD/svg11.dtd"><svg t="1617798214185" class="icon" viewBox="0 0 1024 1024" version="1.1" xmlns="http://www.w3.org/2000/svg" p-id="1217" xmlns:xlink="http://www.w3.org/1999/xlink" width="200" height="200"><defs><style type="text/css"></style></defs><path d="M512 154.51m-77.51 0a77.51 77.51 0 1 0 155.02 0 77.51 77.51 0 1 0-155.02 0Z" fill="#F9DB91" p-id="1218"></path><path d="M511.996 510.398343m-79.478802 79.478802a112.4 112.4 0 1 0 158.957604-158.957604 112.4 112.4 0 1 0-158.957604 158.957604Z" fill="#AEF0FF" p-id="1219"></path><path d="M869.49 510.4m-77.51 0a77.51 77.51 0 1 0 155.02 0 77.51 77.51 0 1 0-155.02 0Z" fill="#EF6A6A" p-id="1220"></path><path d="M512 869.49m-77.51 0a77.51 77.51 0 1 0 155.02 0 77.51 77.51 0 1 0-155.02 0Z" fill="#F9DB91" p-id="1221"></path><path d="M154.492425 510.409031m-75.437314 17.804823a77.51 77.51 0 1 0 150.874629-35.609647 77.51 77.51 0 1 0-150.874629 35.609647Z" fill="#EF6A6A" p-id="1222"></path><path d="M960 510.4a90.52 90.52 0 0 0-76.41-89.4c-33.4-139.33-143.09-249-282.46-282.27a90.52 90.52 0 0 0-178.26 0C283.5 172 173.79 281.66 140.39 421a90.52 90.52 0 0 0 0 178.82c33.36 139.15 142.84 248.67 282 282.12a90.51 90.51 0 0 0 179.3 0c139.12-33.45 248.62-143 282-282.14A90.53 90.53 0 0 0 960 510.4zM763.83 258.57a354.44 354.44 0 0 1 92.93 162.22 90.54 90.54 0 0 0-76.84 76.61H636.73A125.44 125.44 0 0 0 525 385.67V244.08a90.54 90.54 0 0 0 76.82-78.41 355 355 0 0 1 162 92.9zM512 609.8a99.4 99.4 0 1 1 99.4-99.4 99.51 99.51 0 0 1-99.4 99.4zM512 90a64.51 64.51 0 1 1-64.51 64.51A64.58 64.58 0 0 1 512 90zM260.17 258.57a355 355 0 0 1 162-92.9A90.54 90.54 0 0 0 499 244.08v141.59A125.44 125.44 0 0 0 387.27 497.4H244.08a90.54 90.54 0 0 0-76.86-76.61 354.93 354.93 0 0 1 93-162.22zM90 510.4a64.51 64.51 0 1 1 64.51 64.51A64.58 64.58 0 0 1 90 510.4z m170.17 251.84A354.82 354.82 0 0 1 167.23 600a90.56 90.56 0 0 0 76.85-76.62h143.19A125.43 125.43 0 0 0 499 635.13v144.79a90.56 90.56 0 0 0-76.39 75.32 355.08 355.08 0 0 1-162.44-93zM512 934a64.51 64.51 0 1 1 64.51-64.51A64.58 64.58 0 0 1 512 934z m251.83-171.76a355.32 355.32 0 0 1-162.44 93A90.55 90.55 0 0 0 525 779.92V635.13A125.43 125.43 0 0 0 636.73 523.4h143.19a90.55 90.55 0 0 0 76.85 76.6 354.82 354.82 0 0 1-92.94 162.22z m105.66-187.33A64.51 64.51 0 1 1 934 510.4a64.58 64.58 0 0 1-64.51 64.51z" fill="#512C56" p-id="1223"></path></svg>