<?xml version="1.0" standalone="no"?><!DOCTYPE svg PUBLIC "-//W3C//DTD SVG 1.1//EN" "http://www.w3.org/Graphics/SVG/1.1/DTD/svg11.dtd"><svg t="1617798217864" class="icon" viewBox="0 0 1024 1024" version="1.1" xmlns="http://www.w3.org/2000/svg" p-id="1356" xmlns:xlink="http://www.w3.org/1999/xlink" width="200" height="200"><defs><style type="text/css"></style></defs><path d="M930 149.61H94a17 17 0 0 0-17 17v553a17 17 0 0 0 17 17h574.25V331.36a17.93 17.93 0 0 1 17.92-17.91h55.56a17.93 17.93 0 0 1 17.92 17.91V736.6H930a17 17 0 0 0 17-17v-553a17 17 0 0 0-17-16.99zM446.35 321.77a10 10 0 0 1-10 10H198.57a10 10 0 0 1-10-10v-47.51a10 10 0 0 1 10-10h237.78a10 10 0 0 1 10 10z" fill="#C5EAFF" p-id="1357"></path><path d="M188.57 264.26m10 0l237.78 0q10 0 10 10l0 47.51q0 10-10 10l-237.78 0q-10 0-10-10l0-47.51q0-10 10-10Z" fill="#F9DB91" p-id="1358"></path><path d="M741.73 313.45h-55.56a17.93 17.93 0 0 0-17.92 17.91v452a2.45 2.45 0 0 0 0.35 1.27l0.17 0.28 45 83.67 45.38-83.7 0.17-0.27a2.43 2.43 0 0 0 0.36-1.28V331.36a17.93 17.93 0 0 0-17.95-17.91z" fill="#EF6A6A" p-id="1359"></path><path d="M930 136.61H94a30 30 0 0 0-30 30v553a30 30 0 0 0 30 30h561.25v33.72a15.49 15.49 0 0 0 2.22 8l49.63 92.35a7.73 7.73 0 0 0 13.22 0l50.08-92.36a15.48 15.48 0 0 0 2.25-8V749.6H930a30 30 0 0 0 30-30v-553a30 30 0 0 0-30-29.99z m-183.35 644l-32.86 60.61-32.54-60.55V331.36a4.92 4.92 0 0 1 4.92-4.91h55.56a4.92 4.92 0 0 1 4.92 4.91zM934 719.6a4 4 0 0 1-4 4H772.65V356.47h6.41v157.42a13 13 0 0 0 26 0V343.47a13 13 0 0 0-13-13h-19.43a30.9 30.9 0 0 0-30-30v-65.05a20 20 0 0 0-20-20h-17.32a20 20 0 0 0-20 20v65.05a30.91 30.91 0 0 0-30.06 30.89V723.6H94a4 4 0 0 1-4-4v-553a4 4 0 0 1 4-4h836a4 4 0 0 1 4 4z" fill="#512C56" p-id="1360"></path><path d="M436.35 251.26H198.57a23 23 0 0 0-23 23v47.51a23 23 0 0 0 23 23h237.78a23 23 0 0 0 23-23v-47.51a23 23 0 0 0-23-23z m-3 67.51H201.57v-41.51h231.78zM443.57 507.78H190.43a13 13 0 0 0 0 26h253.14a13 13 0 0 0 0-26zM364.15 610.56H190.43a13 13 0 0 0 0 26h173.72a13 13 0 0 0 0-26z" fill="#512C56" p-id="1361"></path></svg>